<svg width="34" height="60" viewBox="0 0 34 60" fill="none" xmlns="http://www.w3.org/2000/svg">
<g clip-path="url(#clip0_8194_99603)">
<path d="M8.00928 8.992V33.034C8.00928 37.991 12.0423 42.026 17.0003 42.026C21.9583 42.026 25.9913 37.992 25.9913 33.034V8.992C25.9903 4.034 21.9573 0 17.0003 0C12.0433 0 8.00928 4.034 8.00928 8.992Z" fill="black"/>
<path d="M0.244141 23.4658V33.0348C0.244141 41.3758 6.48214 48.5068 14.7551 49.6218L15.1711 49.6768V56.3408H8.69614V59.9998H25.4601V56.3408H18.8301V49.6768L19.2461 49.6218C27.5191 48.5058 33.7571 41.3758 33.7571 33.0348V22.9468H30.0971V33.0348C30.0971 40.2568 24.2221 46.1318 17.0001 46.1318C9.77914 46.1318 3.90414 40.2568 3.90414 33.0348V23.4658H0.244141Z" fill="black"/>
</g>
<defs>
<clipPath id="clip0_8194_99603">
<rect width="34" height="60" fill="white"/>
</clipPath>
</defs>
</svg>
